<svg xmlns="http://www.w3.org/2000/svg" xmlns:xlink="http://www.w3.org/1999/xlink" width="2191" zoomAndPan="magnify" viewBox="0 0 1643.25 399.74999" height="533" preserveAspectRatio="xMidYMid meet" version="1.0"><defs><g/><clipPath id="ecf7c15d87"><path d="M 147 0 L 1493 0 L 1493 399.5 L 147 399.5 Z M 147 0 " clip-rule="nonzero"/></clipPath><clipPath id="525a450637"><path d="M 0.804688 31.671875 L 539.144531 31.671875 L 539.144531 354.207031 L 0.804688 354.207031 Z M 0.804688 31.671875 " clip-rule="nonzero"/></clipPath><clipPath id="069297f029"><path d="M 0.804688 0.671875 L 539 0.671875 L 539 323.207031 L 0.804688 323.207031 Z M 0.804688 0.671875 " clip-rule="nonzero"/></clipPath><clipPath id="fe17b38cf2"><rect x="0" width="540" y="0" height="324"/></clipPath><clipPath id="a397325fb9"><rect x="0" width="1346" y="0" height="400"/></clipPath></defs><g clip-path="url(#ecf7c15d87)"><g transform="matrix(1, 0, 0, 1, 147, 0)"><g clip-path="url(#a397325fb9)"><g clip-path="url(#525a450637)"><g transform="matrix(1, 0, 0, 1, 0, 31)"><g clip-path="url(#fe17b38cf2)"><g clip-path="url(#069297f029)"><path fill="#16316c" d="M 0.804688 0.671875 L 538.789062 0.671875 L 538.789062 323.207031 L 0.804688 323.207031 Z M 0.804688 0.671875 " fill-opacity="1" fill-rule="nonzero"/></g></g></g></g><g fill="#16316c" fill-opacity="1"><g transform="translate(28.55821, 335.295329)"><g><path d="M 12.363281 -283.3125 L 88.160156 -283.3125 C 109.675781 -283.3125 125.421875 -277.910156 135.40625 -267.105469 C 145.304688 -256.390625 150.257812 -239.25 150.257812 -215.6875 L 150.257812 -203.324219 C 150.257812 -174.679688 139.765625 -157.496094 118.78125 -151.773438 L 117.765625 -155.503906 L 118.734375 -159.242188 C 131.664062 -155.890625 140.765625 -148.105469 146.035156 -135.886719 C 151.019531 -124.335938 153.507812 -109.1875 153.507812 -90.4375 C 153.507812 -60.03125 148.890625 -36.882812 139.648438 -20.992188 C 130.011719 -4.421875 112.847656 3.863281 88.160156 3.863281 L 8.5 3.863281 L 8.5 -283.3125 Z M 12.363281 -275.585938 L 12.363281 -279.449219 L 16.226562 -279.449219 L 16.226562 0 L 12.363281 0 L 12.363281 -3.863281 L 88.160156 -3.863281 C 109.886719 -3.863281 124.820312 -10.867188 132.96875 -24.878906 C 141.511719 -39.566406 145.78125 -61.421875 145.78125 -90.4375 C 145.78125 -108.125 143.503906 -122.253906 138.941406 -132.824219 C 134.667969 -142.730469 127.289062 -149.042969 116.796875 -151.761719 L 102.734375 -155.40625 L 116.75 -159.230469 C 133.9375 -163.917969 142.53125 -178.613281 142.53125 -203.324219 L 142.53125 -215.6875 C 142.53125 -237.234375 138.261719 -252.625 129.730469 -261.863281 C 121.277344 -271.011719 107.421875 -275.585938 88.160156 -275.585938 Z M 78.402344 -178.234375 C 81.558594 -178.234375 83.652344 -179.296875 84.683594 -181.421875 C 86.160156 -184.46875 86.902344 -188.949219 86.902344 -194.867188 L 86.902344 -222.84375 C 86.902344 -226.425781 86.21875 -228.988281 84.855469 -230.535156 C 83.617188 -231.941406 81.574219 -232.644531 78.726562 -232.644531 L 67.015625 -232.644531 L 67.015625 -236.507812 L 70.878906 -236.507812 L 70.878906 -174.371094 L 67.015625 -174.371094 L 67.015625 -178.234375 Z M 78.402344 -170.507812 L 63.152344 -170.507812 L 63.152344 -240.371094 L 78.726562 -240.371094 C 83.902344 -240.371094 87.878906 -238.792969 90.652344 -235.644531 C 93.300781 -232.636719 94.628906 -228.371094 94.628906 -222.84375 L 94.628906 -194.867188 C 94.628906 -187.769531 93.628906 -182.164062 91.636719 -178.054688 C 89.199219 -173.023438 84.785156 -170.507812 78.402344 -170.507812 Z M 72.546875 -52.984375 C 78.777344 -52.984375 83.339844 -54.363281 86.226562 -57.121094 C 89.0625 -59.832031 90.480469 -64.105469 90.480469 -69.945312 L 90.480469 -104.753906 C 90.480469 -112.523438 89.402344 -118.277344 87.253906 -122.019531 C 85.5 -125.066406 82.226562 -126.589844 77.425781 -126.589844 L 67.015625 -126.589844 L 67.015625 -130.453125 L 70.878906 -130.453125 L 70.878906 -49.449219 L 67.015625 -49.449219 L 67.242188 -53.304688 L 72.773438 -52.980469 L 72.546875 -49.121094 Z M 72.433594 -45.261719 L 63.152344 -45.804688 L 63.152344 -134.316406 L 77.425781 -134.316406 C 85.207031 -134.316406 90.714844 -131.5 93.949219 -125.871094 C 96.785156 -120.9375 98.207031 -113.898438 98.207031 -104.753906 L 98.207031 -69.945312 C 98.207031 -61.902344 95.992188 -55.765625 91.5625 -51.535156 C 87.183594 -47.351562 80.84375 -45.261719 72.546875 -45.261719 Z M 72.433594 -45.261719 "/></g></g></g><g fill="#16316c" fill-opacity="1"><g transform="translate(184.384356, 335.295329)"><g><path d="M 56.605469 7.117188 C 38.59375 7.117188 24.867188 0.621094 15.417969 -12.367188 C 6.25 -24.972656 1.667969 -41.238281 1.667969 -61.160156 C 1.667969 -82.988281 4.824219 -100.617188 11.144531 -114.042969 C 17.488281 -127.527344 27.425781 -139.339844 40.949219 -149.484375 L 43.265625 -146.394531 L 39.828125 -144.636719 C 28.917969 -166.007812 23.464844 -184.59375 23.464844 -200.394531 C 23.464844 -217.398438 29.054688 -230.785156 40.238281 -240.554688 C 51.265625 -250.191406 65.398438 -255.007812 82.628906 -255.007812 C 99.609375 -255.007812 113.609375 -250.429688 124.628906 -241.265625 C 135.859375 -231.925781 141.472656 -218.953125 141.472656 -202.347656 C 141.472656 -178.546875 128.511719 -156.390625 102.59375 -135.882812 L 100.199219 -138.910156 L 103.753906 -140.421875 L 113.839844 -116.671875 L 110.28125 -115.164062 L 106.667969 -116.53125 C 113.011719 -133.292969 122.566406 -146.347656 135.328125 -155.691406 L 138.644531 -158.117188 L 164.886719 -117.210938 L 162.105469 -115.042969 C 149.910156 -105.535156 139.921875 -89.640625 132.148438 -67.367188 L 128.5 -68.640625 L 132.070312 -70.113281 L 162.574219 3.863281 L 100.144531 3.863281 L 93.335938 -13.910156 L 96.945312 -15.289062 L 99.902344 -12.804688 C 95 -6.96875 88.78125 -2.195312 81.246094 1.515625 C 73.660156 5.25 65.445312 7.117188 56.605469 7.117188 Z M 56.605469 -0.609375 C 64.246094 -0.609375 71.324219 -2.210938 77.832031 -5.417969 C 84.394531 -8.648438 89.78125 -12.769531 93.988281 -17.773438 L 98.207031 -22.796875 L 106.410156 -1.382812 L 102.800781 0 L 102.800781 -3.863281 L 156.804688 -3.863281 L 156.804688 0 L 153.230469 1.472656 L 124.367188 -68.527344 L 124.851562 -69.914062 C 133.128906 -93.621094 143.960938 -110.695312 157.355469 -121.136719 L 159.730469 -118.089844 L 156.480469 -116.003906 L 134.359375 -150.488281 L 137.609375 -152.574219 L 139.890625 -149.457031 C 128.363281 -141.015625 119.699219 -129.128906 113.894531 -113.796875 L 110.488281 -104.792969 L 95.492188 -140.113281 L 97.800781 -141.941406 C 121.765625 -160.902344 133.746094 -181.039062 133.746094 -202.347656 C 133.746094 -216.539062 129.058594 -227.53125 119.6875 -235.324219 C 110.101562 -243.296875 97.75 -247.28125 82.628906 -247.28125 C 67.332031 -247.28125 54.894531 -243.101562 45.320312 -234.734375 C 35.898438 -226.503906 31.191406 -215.058594 31.191406 -200.394531 C 31.191406 -185.832031 36.363281 -168.417969 46.707031 -148.148438 L 48.1875 -145.253906 L 45.585938 -143.300781 C 33.085938 -133.925781 23.933594 -123.078125 18.136719 -110.753906 C 12.308594 -98.367188 9.394531 -81.839844 9.394531 -61.160156 C 9.394531 -42.910156 13.484375 -28.164062 21.667969 -16.910156 C 29.570312 -6.042969 41.21875 -0.609375 56.605469 -0.609375 Z M 85.628906 -181.847656 C 87.476562 -183.882812 89.179688 -186.898438 90.742188 -190.902344 C 92.300781 -194.898438 93.082031 -198.710938 93.082031 -202.347656 C 93.082031 -204.558594 92.65625 -206.105469 91.808594 -206.984375 C 90.996094 -207.824219 89.5625 -208.242188 87.511719 -208.242188 C 86.125 -208.242188 85.058594 -207.792969 84.3125 -206.886719 C 83.382812 -205.757812 82.914062 -204.242188 82.914062 -202.347656 C 82.914062 -197.191406 85.105469 -188.984375 89.484375 -177.722656 L 85.882812 -176.324219 L 82.996094 -178.890625 L 85.597656 -181.816406 Z M 91.375 -176.683594 L 84.574219 -169.03125 L 82.285156 -174.921875 C 77.554688 -187.082031 75.1875 -196.226562 75.1875 -202.347656 C 75.1875 -206.089844 76.242188 -209.242188 78.347656 -211.796875 C 80.636719 -214.578125 83.691406 -215.96875 87.511719 -215.96875 C 91.746094 -215.96875 95.03125 -214.765625 97.363281 -212.351562 C 99.660156 -209.976562 100.808594 -206.640625 100.808594 -202.347656 C 100.808594 -197.742188 99.851562 -192.992188 97.941406 -188.09375 C 96.03125 -183.203125 93.835938 -179.390625 91.34375 -176.652344 Z M 65.390625 -41.273438 C 68.359375 -41.273438 70.871094 -42.417969 72.921875 -44.707031 C 75.28125 -47.339844 76.824219 -50.378906 77.550781 -53.824219 L 81.328125 -53.027344 L 77.761719 -51.542969 L 58.566406 -97.738281 L 62.136719 -99.222656 L 65.351562 -97.078125 L 63.398438 -94.152344 C 61.953125 -91.980469 60.734375 -88.332031 59.75 -83.203125 C 58.710938 -77.804688 58.191406 -72.515625 58.191406 -67.339844 L 58.191406 -65.714844 C 58.191406 -57.574219 58.804688 -51.054688 60.027344 -46.15625 C 60.480469 -44.351562 61.152344 -43.0625 62.046875 -42.296875 C 62.84375 -41.617188 63.957031 -41.273438 65.390625 -41.273438 Z M 65.390625 -33.546875 C 62.050781 -33.546875 59.261719 -34.507812 57.019531 -36.429688 C 54.878906 -38.265625 53.382812 -40.882812 52.53125 -44.28125 C 51.152344 -49.792969 50.464844 -56.9375 50.464844 -65.714844 L 50.464844 -67.339844 C 50.464844 -73.007812 51.03125 -78.78125 52.160156 -84.660156 C 53.34375 -90.8125 54.945312 -95.402344 56.96875 -98.4375 L 62.929688 -107.378906 L 85.355469 -53.402344 L 85.109375 -52.230469 C 84.101562 -47.433594 81.957031 -43.207031 78.675781 -39.550781 C 75.089844 -35.546875 70.660156 -33.546875 65.390625 -33.546875 Z M 65.390625 -33.546875 "/></g></g></g><g fill="#16316c" fill-opacity="1"><g transform="translate(348.668714, 335.295329)"><g><path d="M 78.726562 6.464844 C 52.203125 6.464844 32.917969 -0.25 20.871094 -13.6875 C 8.9375 -27 2.96875 -48.136719 2.96875 -77.101562 L 2.96875 -108.289062 L 65.671875 -108.289062 L 65.671875 -69.617188 C 65.671875 -63.433594 66.582031 -58.921875 68.398438 -56.085938 C 69.859375 -53.804688 72.109375 -52.660156 75.148438 -52.660156 C 78.757812 -52.660156 81.15625 -53.550781 82.34375 -55.332031 C 83.863281 -57.613281 84.625 -61.832031 84.625 -67.992188 C 84.625 -76.648438 83.617188 -83.742188 81.601562 -89.28125 C 79.589844 -94.820312 77.046875 -99.421875 73.976562 -103.085938 C 70.699219 -106.996094 64.769531 -113.136719 56.1875 -121.503906 L 32.078125 -145.613281 C 12.671875 -164.566406 2.96875 -185.648438 2.96875 -208.855469 C 2.96875 -233.679688 8.765625 -252.695312 20.359375 -265.894531 C 32.078125 -279.242188 49.042969 -285.914062 71.246094 -285.914062 C 97.613281 -285.914062 116.714844 -278.777344 128.546875 -264.507812 C 140.199219 -250.457031 146.027344 -228.761719 146.027344 -199.421875 L 146.027344 -195.558594 L 81.433594 -195.558594 L 81.046875 -218.546875 C 81.046875 -221.25 80.367188 -223.3125 79.015625 -224.738281 C 77.71875 -226.105469 75.777344 -226.789062 73.195312 -226.789062 C 70 -226.789062 67.699219 -226.015625 66.296875 -224.472656 C 64.796875 -222.824219 64.046875 -220.4375 64.046875 -217.3125 C 64.046875 -209.320312 68.84375 -200.824219 78.441406 -191.828125 L 111.007812 -160.566406 C 118.75 -153.042969 125.175781 -145.894531 130.285156 -139.121094 C 135.523438 -132.175781 139.726562 -124.003906 142.898438 -114.609375 C 146.066406 -105.207031 147.652344 -94.113281 147.652344 -81.328125 C 147.652344 -52.964844 142.375 -31.34375 131.8125 -16.46875 C 120.957031 -1.179688 103.261719 6.464844 78.726562 6.464844 Z M 78.726562 -1.261719 C 100.601562 -1.261719 116.199219 -7.820312 125.511719 -20.941406 C 135.121094 -34.476562 139.925781 -54.605469 139.925781 -81.328125 C 139.925781 -93.269531 138.476562 -103.539062 135.574219 -112.136719 C 132.671875 -120.746094 128.851562 -128.1875 124.113281 -134.46875 C 119.246094 -140.925781 113.09375 -147.765625 105.65625 -154.992188 L 73.15625 -186.191406 C 61.933594 -196.714844 56.320312 -207.085938 56.320312 -217.3125 C 56.320312 -222.429688 57.738281 -226.546875 60.578125 -229.671875 C 63.511719 -232.898438 67.71875 -234.515625 73.195312 -234.515625 C 77.988281 -234.515625 81.796875 -233.027344 84.617188 -230.058594 C 87.386719 -227.144531 88.769531 -223.351562 88.769531 -218.679688 L 89.097656 -199.484375 L 85.234375 -199.421875 L 85.234375 -203.285156 L 142.164062 -203.285156 L 142.164062 -199.421875 L 138.300781 -199.421875 C 138.300781 -226.902344 133.066406 -246.953125 122.597656 -259.578125 C 112.3125 -271.984375 95.191406 -278.1875 71.246094 -278.1875 C 51.375 -278.1875 36.347656 -272.390625 26.164062 -260.796875 C 15.851562 -249.054688 10.695312 -231.742188 10.695312 -208.855469 C 10.695312 -187.816406 19.644531 -168.558594 37.539062 -151.078125 L 61.578125 -127.039062 C 70.347656 -118.488281 76.453125 -112.160156 79.898438 -108.046875 C 83.550781 -103.6875 86.539062 -98.3125 88.863281 -91.921875 C 91.1875 -85.53125 92.351562 -77.554688 92.351562 -67.992188 C 92.351562 -60.273438 91.15625 -54.625 88.773438 -51.046875 C 86.054688 -46.972656 81.515625 -44.933594 75.148438 -44.933594 C 69.292969 -44.933594 64.875 -47.261719 61.890625 -51.917969 C 59.261719 -56.023438 57.945312 -61.921875 57.945312 -69.617188 L 57.945312 -104.425781 L 61.808594 -104.425781 L 61.808594 -100.5625 L 6.832031 -100.5625 L 6.832031 -104.425781 L 10.695312 -104.425781 L 10.695312 -77.101562 C 10.695312 -50.109375 16.003906 -30.691406 26.625 -18.84375 C 37.132812 -7.121094 54.503906 -1.261719 78.726562 -1.261719 Z M 78.726562 -1.261719 "/></g></g></g><g fill="#16316c" fill-opacity="1"><g transform="translate(498.639162, 335.295329)"><g/></g></g><g fill="#16316c" fill-opacity="1"><g transform="translate(574.76305, 335.295329)"><g><path d="M 8.5 0 L 8.5 -283.3125 L 100.964844 -283.3125 L 124.84375 -109.507812 L 121.019531 -108.980469 L 117.191406 -109.507812 L 141.074219 -283.3125 L 234.1875 -283.3125 L 234.1875 3.863281 L 175.386719 3.863281 L 175.386719 -201.371094 L 179.25 -201.371094 L 183.066406 -200.761719 L 150.339844 3.863281 L 93.683594 3.863281 L 58.976562 -200.726562 L 62.785156 -201.371094 L 66.648438 -201.371094 L 66.648438 3.863281 L 8.5 3.863281 Z M 16.226562 0 L 12.363281 0 L 12.363281 -3.863281 L 62.785156 -3.863281 L 62.785156 0 L 58.921875 0 L 58.921875 -201.371094 L 66.59375 -202.019531 L 100.753906 -0.644531 L 96.945312 0 L 96.945312 -3.863281 L 147.042969 -3.863281 L 147.042969 0 L 143.230469 -0.609375 L 175.433594 -201.980469 L 183.113281 -201.371094 L 183.113281 0 L 179.25 0 L 179.25 -3.863281 L 230.324219 -3.863281 L 230.324219 0 L 226.460938 0 L 226.460938 -279.449219 L 230.324219 -279.449219 L 230.324219 -275.585938 L 144.441406 -275.585938 L 144.441406 -279.449219 L 148.269531 -278.921875 L 124.84375 -108.457031 L 117.191406 -108.457031 L 93.769531 -278.921875 L 97.59375 -279.449219 L 97.59375 -275.585938 L 12.363281 -275.585938 L 12.363281 -279.449219 L 16.226562 -279.449219 Z M 16.226562 0 "/></g></g></g><g fill="#16316c" fill-opacity="1"><g transform="translate(817.448423, 335.295329)"><g><path d="M 8.5 0 L 8.5 -283.3125 L 128.136719 -283.3125 L 128.136719 -221.582031 L 69.292969 -221.582031 L 69.292969 -225.445312 L 73.15625 -225.445312 L 73.15625 -171.117188 L 69.292969 -171.117188 L 69.292969 -174.980469 L 125.859375 -174.980469 L 125.859375 -114.550781 L 69.292969 -114.550781 L 69.292969 -118.414062 L 73.15625 -118.414062 L 73.15625 -54.328125 L 69.292969 -54.328125 L 69.292969 -58.191406 L 131.714844 -58.191406 L 131.714844 3.863281 L 8.5 3.863281 Z M 16.226562 0 L 12.363281 0 L 12.363281 -3.863281 L 127.851562 -3.863281 L 127.851562 0 L 123.988281 0 L 123.988281 -54.328125 L 127.851562 -54.328125 L 127.851562 -50.464844 L 65.429688 -50.464844 L 65.429688 -122.277344 L 121.996094 -122.277344 L 121.996094 -118.414062 L 118.132812 -118.414062 L 118.132812 -171.117188 L 121.996094 -171.117188 L 121.996094 -167.253906 L 65.429688 -167.253906 L 65.429688 -229.308594 L 124.273438 -229.308594 L 124.273438 -225.445312 L 120.410156 -225.445312 L 120.410156 -279.449219 L 124.273438 -279.449219 L 124.273438 -275.585938 L 12.363281 -275.585938 L 12.363281 -279.449219 L 16.226562 -279.449219 Z M 16.226562 0 "/></g></g></g><g fill="#16316c" fill-opacity="1"><g transform="translate(951.47844, 335.295329)"><g><path d="M 12.363281 -283.3125 L 89.460938 -283.3125 C 110.5625 -283.3125 126.480469 -277.355469 137.226562 -265.445312 C 147.855469 -253.660156 153.28125 -236.4375 153.507812 -213.773438 L 154.160156 -82.976562 C 154.382812 -54.613281 149.378906 -33.152344 139.144531 -18.597656 C 128.613281 -3.625 111.402344 3.863281 87.511719 3.863281 L 8.5 3.863281 L 8.5 -283.3125 Z M 12.363281 -275.585938 L 12.363281 -279.449219 L 16.226562 -279.449219 L 16.226562 0 L 12.363281 0 L 12.363281 -3.863281 L 87.511719 -3.863281 C 108.726562 -3.863281 123.832031 -10.257812 132.824219 -23.042969 C 142.105469 -36.246094 146.644531 -56.210938 146.433594 -82.9375 L 145.785156 -213.695312 C 145.574219 -234.40625 140.8125 -249.933594 131.488281 -260.269531 C 122.277344 -270.480469 108.269531 -275.585938 89.460938 -275.585938 Z M 78.402344 -53.3125 C 82.449219 -53.3125 85.371094 -54.191406 87.167969 -55.949219 C 88.941406 -57.6875 89.828125 -60.507812 89.828125 -64.414062 L 89.828125 -208.527344 C 89.828125 -214.429688 89.398438 -218.761719 88.539062 -221.535156 C 87.917969 -223.527344 86.863281 -224.835938 85.375 -225.457031 C 83.246094 -226.34375 79.730469 -226.789062 74.824219 -226.789062 L 68.640625 -226.789062 L 68.640625 -230.652344 L 72.503906 -230.652344 L 72.503906 -49.449219 L 68.640625 -49.449219 L 68.640625 -53.3125 Z M 78.402344 -45.585938 L 64.777344 -45.585938 L 64.777344 -234.515625 L 74.824219 -234.515625 C 80.761719 -234.515625 85.269531 -233.871094 88.347656 -232.589844 C 92.058594 -231.042969 94.585938 -228.121094 95.917969 -223.824219 C 97.007812 -220.308594 97.554688 -215.207031 97.554688 -208.527344 L 97.554688 -64.414062 C 97.554688 -58.339844 95.894531 -53.679688 92.570312 -50.429688 C 89.273438 -47.199219 84.550781 -45.585938 78.402344 -45.585938 Z M 78.402344 -45.585938 "/></g></g></g><g fill="#16316c" fill-opacity="1"><g transform="translate(1111.859044, 335.295329)"><g><path d="M 5.894531 -283.3125 L 67.625 -283.3125 L 67.625 3.863281 L 5.894531 3.863281 Z M 13.621094 -275.585938 L 13.621094 -3.863281 L 59.898438 -3.863281 L 59.898438 -275.585938 Z M 13.621094 -275.585938 "/></g></g></g><g fill="#16316c" fill-opacity="1"><g transform="translate(1185.705624, 335.295329)"><g><path d="M 1.035156 -0.371094 L 28.375 -283.3125 L 130.0625 -283.3125 L 157.472656 3.863281 L 96.652344 3.863281 L 92.445312 -44.886719 L 96.292969 -45.21875 L 96.292969 -41.355469 L 62.460938 -41.355469 L 62.460938 -45.21875 L 66.3125 -44.941406 L 62.804688 3.863281 L 0.625 3.863281 Z M 8.726562 0.371094 L 4.878906 0 L 4.878906 -3.863281 L 59.207031 -3.863281 L 59.207031 0 L 55.355469 -0.277344 L 58.867188 -49.082031 L 99.839844 -49.082031 L 104.046875 -0.332031 L 100.199219 0 L 100.199219 -3.863281 L 153.226562 -3.863281 L 153.226562 0 L 149.378906 0.367188 L 122.703125 -279.082031 L 126.546875 -279.449219 L 126.546875 -275.585938 L 31.882812 -275.585938 L 31.882812 -279.449219 L 35.726562 -279.078125 Z M 66.691406 -93.652344 L 92.066406 -93.652344 L 92.066406 -89.789062 L 88.214844 -89.453125 L 75.855469 -231.617188 L 79.703125 -231.953125 L 79.703125 -228.089844 L 77.101562 -228.089844 L 77.101562 -231.953125 L 80.953125 -231.667969 L 70.542969 -89.503906 L 66.691406 -89.789062 Z M 62.535156 -85.925781 L 73.507812 -235.816406 L 83.246094 -235.816406 L 96.277344 -85.925781 Z M 62.535156 -85.925781 "/></g></g></g><g fill="#829dd8" fill-opacity="1"><g transform="translate(28.55821, 335.295329)"><g><path d="M 12.359375 -279.4375 L 88.15625 -279.4375 C 108.539062 -279.4375 123.34375 -274.445312 132.5625 -264.46875 C 141.78125 -254.5 146.390625 -238.238281 146.390625 -215.6875 L 146.390625 -203.328125 C 146.390625 -176.648438 136.847656 -160.707031 117.765625 -155.5 C 129.472656 -152.457031 137.710938 -145.40625 142.484375 -134.34375 C 147.253906 -123.289062 149.640625 -108.65625 149.640625 -90.4375 C 149.640625 -60.726562 145.191406 -38.226562 136.296875 -22.9375 C 127.410156 -7.644531 111.363281 0 88.15625 0 L 12.359375 0 Z M 78.40625 -174.375 C 83.175781 -174.375 86.425781 -176.160156 88.15625 -179.734375 C 89.894531 -183.316406 90.765625 -188.359375 90.765625 -194.859375 L 90.765625 -222.84375 C 90.765625 -231.945312 86.75 -236.5 78.71875 -236.5 L 67.015625 -236.5 L 67.015625 -174.375 Z M 72.546875 -49.125 C 87.078125 -49.125 94.34375 -56.0625 94.34375 -69.9375 L 94.34375 -104.75 C 94.34375 -113.207031 93.09375 -119.601562 90.59375 -123.9375 C 88.101562 -128.28125 83.710938 -130.453125 77.421875 -130.453125 L 67.015625 -130.453125 L 67.015625 -49.453125 Z M 72.546875 -49.125 "/></g></g></g><g fill="#829dd8" fill-opacity="1"><g transform="translate(184.384356, 335.295329)"><g><path d="M 56.609375 3.25 C 39.910156 3.25 27.222656 -2.710938 18.546875 -14.640625 C 9.867188 -26.566406 5.53125 -42.070312 5.53125 -61.15625 C 5.53125 -82.414062 8.566406 -99.492188 14.640625 -112.390625 C 20.710938 -125.296875 30.253906 -136.628906 43.265625 -146.390625 C 32.640625 -167.210938 27.328125 -185.210938 27.328125 -200.390625 C 27.328125 -216.222656 32.476562 -228.640625 42.78125 -237.640625 C 53.082031 -246.640625 66.363281 -251.140625 82.625 -251.140625 C 98.675781 -251.140625 111.851562 -246.851562 122.15625 -238.28125 C 132.457031 -229.71875 137.609375 -217.738281 137.609375 -202.34375 C 137.609375 -179.789062 125.140625 -158.644531 100.203125 -138.90625 L 110.28125 -115.15625 C 116.351562 -131.207031 125.460938 -143.679688 137.609375 -152.578125 L 159.734375 -118.09375 C 146.929688 -108.113281 136.519531 -91.628906 128.5 -68.640625 L 156.796875 0 L 102.796875 0 L 96.9375 -15.296875 C 92.382812 -9.867188 86.582031 -5.421875 79.53125 -1.953125 C 72.488281 1.515625 64.847656 3.25 56.609375 3.25 Z M 88.484375 -179.25 C 90.648438 -181.632812 92.597656 -185.046875 94.328125 -189.484375 C 96.066406 -193.929688 96.9375 -198.21875 96.9375 -202.34375 C 96.9375 -208.851562 93.796875 -212.109375 87.515625 -212.109375 C 84.910156 -212.109375 82.847656 -211.1875 81.328125 -209.34375 C 79.804688 -207.5 79.046875 -205.164062 79.046875 -202.34375 C 79.046875 -196.707031 81.320312 -188.03125 85.875 -176.3125 Z M 65.390625 -37.40625 C 69.503906 -37.40625 72.972656 -38.976562 75.796875 -42.125 C 78.617188 -45.269531 80.460938 -48.90625 81.328125 -53.03125 L 62.140625 -99.21875 L 60.1875 -96.296875 C 58.445312 -93.691406 57.035156 -89.566406 55.953125 -83.921875 C 54.867188 -78.285156 54.328125 -72.757812 54.328125 -67.34375 L 54.328125 -65.71875 C 54.328125 -57.257812 54.976562 -50.425781 56.28125 -45.21875 C 57.582031 -40.007812 60.617188 -37.40625 65.390625 -37.40625 Z M 65.390625 -37.40625 "/></g></g></g><g fill="#829dd8" fill-opacity="1"><g transform="translate(348.668714, 335.295329)"><g><path d="M 78.71875 2.609375 C 53.351562 2.609375 35.03125 -3.679688 23.75 -16.265625 C 12.46875 -28.847656 6.828125 -49.125 6.828125 -77.09375 L 6.828125 -104.421875 L 61.8125 -104.421875 L 61.8125 -69.609375 C 61.8125 -55.734375 66.253906 -48.796875 75.140625 -48.796875 C 80.128906 -48.796875 83.597656 -50.257812 85.546875 -53.1875 C 87.503906 -56.113281 88.484375 -61.046875 88.484375 -67.984375 C 88.484375 -77.097656 87.398438 -84.632812 85.234375 -90.59375 C 83.066406 -96.5625 80.300781 -101.550781 76.9375 -105.5625 C 73.570312 -109.570312 67.550781 -115.804688 58.875 -124.265625 L 34.8125 -148.34375 C 16.15625 -166.5625 6.828125 -186.726562 6.828125 -208.84375 C 6.828125 -232.707031 12.300781 -250.875 23.25 -263.34375 C 34.207031 -275.8125 50.207031 -282.046875 71.25 -282.046875 C 96.40625 -282.046875 114.507812 -275.375 125.5625 -262.03125 C 136.625 -248.695312 142.15625 -227.828125 142.15625 -199.421875 L 85.234375 -199.421875 L 84.90625 -218.609375 C 84.90625 -222.296875 83.875 -225.222656 81.8125 -227.390625 C 79.75 -229.554688 76.878906 -230.640625 73.203125 -230.640625 C 68.859375 -230.640625 65.601562 -229.445312 63.4375 -227.0625 C 61.269531 -224.675781 60.1875 -221.425781 60.1875 -217.3125 C 60.1875 -208.195312 65.390625 -198.757812 75.796875 -189 L 108.328125 -157.78125 C 115.921875 -150.40625 122.207031 -143.410156 127.1875 -136.796875 C 132.175781 -130.179688 136.1875 -122.375 139.21875 -113.375 C 142.257812 -104.375 143.78125 -93.691406 143.78125 -81.328125 C 143.78125 -53.785156 138.738281 -32.910156 128.65625 -18.703125 C 118.570312 -4.492188 101.925781 2.609375 78.71875 2.609375 Z M 78.71875 2.609375 "/></g></g></g><g fill="#829dd8" fill-opacity="1"><g transform="translate(498.639162, 335.295329)"><g/></g></g><g fill="#829dd8" fill-opacity="1"><g transform="translate(574.76305, 335.295329)"><g><path d="M 12.359375 0 L 12.359375 -279.4375 L 97.59375 -279.4375 L 121.015625 -108.984375 L 144.4375 -279.4375 L 230.328125 -279.4375 L 230.328125 0 L 179.25 0 L 179.25 -201.375 L 147.046875 0 L 96.9375 0 L 62.78125 -201.375 L 62.78125 0 Z M 12.359375 0 "/></g></g></g><g fill="#829dd8" fill-opacity="1"><g transform="translate(817.448423, 335.295329)"><g><path d="M 12.359375 0 L 12.359375 -279.4375 L 124.265625 -279.4375 L 124.265625 -225.4375 L 69.296875 -225.4375 L 69.296875 -171.109375 L 122 -171.109375 L 122 -118.40625 L 69.296875 -118.40625 L 69.296875 -54.328125 L 127.84375 -54.328125 L 127.84375 0 Z M 12.359375 0 "/></g></g></g><g fill="#829dd8" fill-opacity="1"><g transform="translate(951.47844, 335.295329)"><g><path d="M 12.359375 -279.4375 L 89.46875 -279.4375 C 109.414062 -279.4375 124.375 -273.90625 134.34375 -262.84375 C 144.320312 -251.789062 149.421875 -235.421875 149.640625 -213.734375 L 150.296875 -82.953125 C 150.515625 -55.410156 145.742188 -34.695312 135.984375 -20.8125 C 126.222656 -6.9375 110.066406 0 87.515625 0 L 12.359375 0 Z M 78.40625 -49.453125 C 88.59375 -49.453125 93.6875 -54.4375 93.6875 -64.40625 L 93.6875 -208.53125 C 93.6875 -214.8125 93.195312 -219.523438 92.21875 -222.671875 C 91.25 -225.816406 89.460938 -227.929688 86.859375 -229.015625 C 84.253906 -230.097656 80.242188 -230.640625 74.828125 -230.640625 L 68.640625 -230.640625 L 68.640625 -49.453125 Z M 78.40625 -49.453125 "/></g></g></g><g fill="#829dd8" fill-opacity="1"><g transform="translate(1111.859044, 335.295329)"><g><path d="M 9.765625 0 L 9.765625 -279.4375 L 63.765625 -279.4375 L 63.765625 0 Z M 9.765625 0 "/></g></g></g><g fill="#829dd8" fill-opacity="1"><g transform="translate(1185.705624, 335.295329)"><g><path d="M 4.875 0 L 31.875 -279.4375 L 126.546875 -279.4375 L 153.21875 0 L 100.203125 0 L 96.296875 -45.21875 L 62.453125 -45.21875 L 59.203125 0 Z M 66.6875 -89.78125 L 92.0625 -89.78125 L 79.703125 -231.953125 L 77.09375 -231.953125 Z M 66.6875 -89.78125 "/></g></g></g><g fill="#16316c" fill-opacity="1"><g transform="translate(28.55821, 335.295329)"><g><path d="M 12.363281 -283.3125 L 88.160156 -283.3125 C 109.675781 -283.3125 125.421875 -277.910156 135.40625 -267.105469 C 145.304688 -256.390625 150.257812 -239.25 150.257812 -215.6875 L 150.257812 -203.324219 C 150.257812 -174.679688 139.765625 -157.496094 118.78125 -151.773438 L 117.765625 -155.503906 L 118.734375 -159.242188 C 131.664062 -155.890625 140.765625 -148.105469 146.035156 -135.886719 C 151.019531 -124.335938 153.507812 -109.1875 153.507812 -90.4375 C 153.507812 -60.03125 148.890625 -36.882812 139.648438 -20.992188 C 130.011719 -4.421875 112.847656 3.863281 88.160156 3.863281 L 8.5 3.863281 L 8.5 -283.3125 Z M 12.363281 -275.585938 L 12.363281 -279.449219 L 16.226562 -279.449219 L 16.226562 0 L 12.363281 0 L 12.363281 -3.863281 L 88.160156 -3.863281 C 109.886719 -3.863281 124.820312 -10.867188 132.96875 -24.878906 C 141.511719 -39.566406 145.78125 -61.421875 145.78125 -90.4375 C 145.78125 -108.125 143.503906 -122.253906 138.941406 -132.824219 C 134.667969 -142.730469 127.289062 -149.042969 116.796875 -151.761719 L 102.734375 -155.40625 L 116.75 -159.230469 C 133.9375 -163.917969 142.53125 -178.613281 142.53125 -203.324219 L 142.53125 -215.6875 C 142.53125 -237.234375 138.261719 -252.625 129.730469 -261.863281 C 121.277344 -271.011719 107.421875 -275.585938 88.160156 -275.585938 Z M 78.402344 -178.234375 C 81.558594 -178.234375 83.652344 -179.296875 84.683594 -181.421875 C 86.160156 -184.46875 86.902344 -188.949219 86.902344 -194.867188 L 86.902344 -222.84375 C 86.902344 -226.425781 86.21875 -228.988281 84.855469 -230.535156 C 83.617188 -231.941406 81.574219 -232.644531 78.726562 -232.644531 L 67.015625 -232.644531 L 67.015625 -236.507812 L 70.878906 -236.507812 L 70.878906 -174.371094 L 67.015625 -174.371094 L 67.015625 -178.234375 Z M 78.402344 -170.507812 L 63.152344 -170.507812 L 63.152344 -240.371094 L 78.726562 -240.371094 C 83.902344 -240.371094 87.878906 -238.792969 90.652344 -235.644531 C 93.300781 -232.636719 94.628906 -228.371094 94.628906 -222.84375 L 94.628906 -194.867188 C 94.628906 -187.769531 93.628906 -182.164062 91.636719 -178.054688 C 89.199219 -173.023438 84.785156 -170.507812 78.402344 -170.507812 Z M 72.546875 -52.984375 C 78.777344 -52.984375 83.339844 -54.363281 86.226562 -57.121094 C 89.0625 -59.832031 90.480469 -64.105469 90.480469 -69.945312 L 90.480469 -104.753906 C 90.480469 -112.523438 89.402344 -118.277344 87.253906 -122.019531 C 85.5 -125.066406 82.226562 -126.589844 77.425781 -126.589844 L 67.015625 -126.589844 L 67.015625 -130.453125 L 70.878906 -130.453125 L 70.878906 -49.449219 L 67.015625 -49.449219 L 67.242188 -53.304688 L 72.773438 -52.980469 L 72.546875 -49.121094 Z M 72.433594 -45.261719 L 63.152344 -45.804688 L 63.152344 -134.316406 L 77.425781 -134.316406 C 85.207031 -134.316406 90.714844 -131.5 93.949219 -125.871094 C 96.785156 -120.9375 98.207031 -113.898438 98.207031 -104.753906 L 98.207031 -69.945312 C 98.207031 -61.902344 95.992188 -55.765625 91.5625 -51.535156 C 87.183594 -47.351562 80.84375 -45.261719 72.546875 -45.261719 Z M 72.433594 -45.261719 "/></g></g></g><g fill="#16316c" fill-opacity="1"><g transform="translate(184.384356, 335.295329)"><g><path d="M 56.605469 7.117188 C 38.59375 7.117188 24.867188 0.621094 15.417969 -12.367188 C 6.25 -24.972656 1.667969 -41.238281 1.667969 -61.160156 C 1.667969 -82.988281 4.824219 -100.617188 11.144531 -114.042969 C 17.488281 -127.527344 27.425781 -139.339844 40.949219 -149.484375 L 43.265625 -146.394531 L 39.828125 -144.636719 C 28.917969 -166.007812 23.464844 -184.59375 23.464844 -200.394531 C 23.464844 -217.398438 29.054688 -230.785156 40.238281 -240.554688 C 51.265625 -250.191406 65.398438 -255.007812 82.628906 -255.007812 C 99.609375 -255.007812 113.609375 -250.429688 124.628906 -241.265625 C 135.859375 -231.925781 141.472656 -218.953125 141.472656 -202.347656 C 141.472656 -178.546875 128.511719 -156.390625 102.59375 -135.882812 L 100.199219 -138.910156 L 103.753906 -140.421875 L 113.839844 -116.671875 L 110.28125 -115.164062 L 106.667969 -116.53125 C 113.011719 -133.292969 122.566406 -146.347656 135.328125 -155.691406 L 138.644531 -158.117188 L 164.886719 -117.210938 L 162.105469 -115.042969 C 149.910156 -105.535156 139.921875 -89.640625 132.148438 -67.367188 L 128.5 -68.640625 L 132.070312 -70.113281 L 162.574219 3.863281 L 100.144531 3.863281 L 93.335938 -13.910156 L 96.945312 -15.289062 L 99.902344 -12.804688 C 95 -6.96875 88.78125 -2.195312 81.246094 1.515625 C 73.660156 5.25 65.445312 7.117188 56.605469 7.117188 Z M 56.605469 -0.609375 C 64.246094 -0.609375 71.324219 -2.210938 77.832031 -5.417969 C 84.394531 -8.648438 89.78125 -12.769531 93.988281 -17.773438 L 98.207031 -22.796875 L 106.410156 -1.382812 L 102.800781 0 L 102.800781 -3.863281 L 156.804688 -3.863281 L 156.804688 0 L 153.230469 1.472656 L 124.367188 -68.527344 L 124.851562 -69.914062 C 133.128906 -93.621094 143.960938 -110.695312 157.355469 -121.136719 L 159.730469 -118.089844 L 156.480469 -116.003906 L 134.359375 -150.488281 L 137.609375 -152.574219 L 139.890625 -149.457031 C 128.363281 -141.015625 119.699219 -129.128906 113.894531 -113.796875 L 110.488281 -104.792969 L 95.492188 -140.113281 L 97.800781 -141.941406 C 121.765625 -160.902344 133.746094 -181.039062 133.746094 -202.347656 C 133.746094 -216.539062 129.058594 -227.53125 119.6875 -235.324219 C 110.101562 -243.296875 97.75 -247.28125 82.628906 -247.28125 C 67.332031 -247.28125 54.894531 -243.101562 45.320312 -234.734375 C 35.898438 -226.503906 31.191406 -215.058594 31.191406 -200.394531 C 31.191406 -185.832031 36.363281 -168.417969 46.707031 -148.148438 L 48.1875 -145.253906 L 45.585938 -143.300781 C 33.085938 -133.925781 23.933594 -123.078125 18.136719 -110.753906 C 12.308594 -98.367188 9.394531 -81.839844 9.394531 -61.160156 C 9.394531 -42.910156 13.484375 -28.164062 21.667969 -16.910156 C 29.570312 -6.042969 41.21875 -0.609375 56.605469 -0.609375 Z M 85.628906 -181.847656 C 87.476562 -183.882812 89.179688 -186.898438 90.742188 -190.902344 C 92.300781 -194.898438 93.082031 -198.710938 93.082031 -202.347656 C 93.082031 -204.558594 92.65625 -206.105469 91.808594 -206.984375 C 90.996094 -207.824219 89.5625 -208.242188 87.511719 -208.242188 C 86.125 -208.242188 85.058594 -207.792969 84.3125 -206.886719 C 83.382812 -205.757812 82.914062 -204.242188 82.914062 -202.347656 C 82.914062 -197.191406 85.105469 -188.984375 89.484375 -177.722656 L 85.882812 -176.324219 L 82.996094 -178.890625 L 85.597656 -181.816406 Z M 91.375 -176.683594 L 84.574219 -169.03125 L 82.285156 -174.921875 C 77.554688 -187.082031 75.1875 -196.226562 75.1875 -202.347656 C 75.1875 -206.089844 76.242188 -209.242188 78.347656 -211.796875 C 80.636719 -214.578125 83.691406 -215.96875 87.511719 -215.96875 C 91.746094 -215.96875 95.03125 -214.765625 97.363281 -212.351562 C 99.660156 -209.976562 100.808594 -206.640625 100.808594 -202.347656 C 100.808594 -197.742188 99.851562 -192.992188 97.941406 -188.09375 C 96.03125 -183.203125 93.835938 -179.390625 91.34375 -176.652344 Z M 65.390625 -41.273438 C 68.359375 -41.273438 70.871094 -42.417969 72.921875 -44.707031 C 75.28125 -47.339844 76.824219 -50.378906 77.550781 -53.824219 L 81.328125 -53.027344 L 77.761719 -51.542969 L 58.566406 -97.738281 L 62.136719 -99.222656 L 65.351562 -97.078125 L 63.398438 -94.152344 C 61.953125 -91.980469 60.734375 -88.332031 59.75 -83.203125 C 58.710938 -77.804688 58.191406 -72.515625 58.191406 -67.339844 L 58.191406 -65.714844 C 58.191406 -57.574219 58.804688 -51.054688 60.027344 -46.15625 C 60.480469 -44.351562 61.152344 -43.0625 62.046875 -42.296875 C 62.84375 -41.617188 63.957031 -41.273438 65.390625 -41.273438 Z M 65.390625 -33.546875 C 62.050781 -33.546875 59.261719 -34.507812 57.019531 -36.429688 C 54.878906 -38.265625 53.382812 -40.882812 52.53125 -44.28125 C 51.152344 -49.792969 50.464844 -56.9375 50.464844 -65.714844 L 50.464844 -67.339844 C 50.464844 -73.007812 51.03125 -78.78125 52.160156 -84.660156 C 53.34375 -90.8125 54.945312 -95.402344 56.96875 -98.4375 L 62.929688 -107.378906 L 85.355469 -53.402344 L 85.109375 -52.230469 C 84.101562 -47.433594 81.957031 -43.207031 78.675781 -39.550781 C 75.089844 -35.546875 70.660156 -33.546875 65.390625 -33.546875 Z M 65.390625 -33.546875 "/></g></g></g><g fill="#16316c" fill-opacity="1"><g transform="translate(348.668714, 335.295329)"><g><path d="M 78.726562 6.464844 C 52.203125 6.464844 32.917969 -0.25 20.871094 -13.6875 C 8.9375 -27 2.96875 -48.136719 2.96875 -77.101562 L 2.96875 -108.289062 L 65.671875 -108.289062 L 65.671875 -69.617188 C 65.671875 -63.433594 66.582031 -58.921875 68.398438 -56.085938 C 69.859375 -53.804688 72.109375 -52.660156 75.148438 -52.660156 C 78.757812 -52.660156 81.15625 -53.550781 82.34375 -55.332031 C 83.863281 -57.613281 84.625 -61.832031 84.625 -67.992188 C 84.625 -76.648438 83.617188 -83.742188 81.601562 -89.28125 C 79.589844 -94.820312 77.046875 -99.421875 73.976562 -103.085938 C 70.699219 -106.996094 64.769531 -113.136719 56.1875 -121.503906 L 32.078125 -145.613281 C 12.671875 -164.566406 2.96875 -185.648438 2.96875 -208.855469 C 2.96875 -233.679688 8.765625 -252.695312 20.359375 -265.894531 C 32.078125 -279.242188 49.042969 -285.914062 71.246094 -285.914062 C 97.613281 -285.914062 116.714844 -278.777344 128.546875 -264.507812 C 140.199219 -250.457031 146.027344 -228.761719 146.027344 -199.421875 L 146.027344 -195.558594 L 81.433594 -195.558594 L 81.046875 -218.546875 C 81.046875 -221.25 80.367188 -223.3125 79.015625 -224.738281 C 77.71875 -226.105469 75.777344 -226.789062 73.195312 -226.789062 C 70 -226.789062 67.699219 -226.015625 66.296875 -224.472656 C 64.796875 -222.824219 64.046875 -220.4375 64.046875 -217.3125 C 64.046875 -209.320312 68.84375 -200.824219 78.441406 -191.828125 L 111.007812 -160.566406 C 118.75 -153.042969 125.175781 -145.894531 130.285156 -139.121094 C 135.523438 -132.175781 139.726562 -124.003906 142.898438 -114.609375 C 146.066406 -105.207031 147.652344 -94.113281 147.652344 -81.328125 C 147.652344 -52.964844 142.375 -31.34375 131.8125 -16.46875 C 120.957031 -1.179688 103.261719 6.464844 78.726562 6.464844 Z M 78.726562 -1.261719 C 100.601562 -1.261719 116.199219 -7.820312 125.511719 -20.941406 C 135.121094 -34.476562 139.925781 -54.605469 139.925781 -81.328125 C 139.925781 -93.269531 138.476562 -103.539062 135.574219 -112.136719 C 132.671875 -120.746094 128.851562 -128.1875 124.113281 -134.46875 C 119.246094 -140.925781 113.09375 -147.765625 105.65625 -154.992188 L 73.15625 -186.191406 C 61.933594 -196.714844 56.320312 -207.085938 56.320312 -217.3125 C 56.320312 -222.429688 57.738281 -226.546875 60.578125 -229.671875 C 63.511719 -232.898438 67.71875 -234.515625 73.195312 -234.515625 C 77.988281 -234.515625 81.796875 -233.027344 84.617188 -230.058594 C 87.386719 -227.144531 88.769531 -223.351562 88.769531 -218.679688 L 89.097656 -199.484375 L 85.234375 -199.421875 L 85.234375 -203.285156 L 142.164062 -203.285156 L 142.164062 -199.421875 L 138.300781 -199.421875 C 138.300781 -226.902344 133.066406 -246.953125 122.597656 -259.578125 C 112.3125 -271.984375 95.191406 -278.1875 71.246094 -278.1875 C 51.375 -278.1875 36.347656 -272.390625 26.164062 -260.796875 C 15.851562 -249.054688 10.695312 -231.742188 10.695312 -208.855469 C 10.695312 -187.816406 19.644531 -168.558594 37.539062 -151.078125 L 61.578125 -127.039062 C 70.347656 -118.488281 76.453125 -112.160156 79.898438 -108.046875 C 83.550781 -103.6875 86.539062 -98.3125 88.863281 -91.921875 C 91.1875 -85.53125 92.351562 -77.554688 92.351562 -67.992188 C 92.351562 -60.273438 91.15625 -54.625 88.773438 -51.046875 C 86.054688 -46.972656 81.515625 -44.933594 75.148438 -44.933594 C 69.292969 -44.933594 64.875 -47.261719 61.890625 -51.917969 C 59.261719 -56.023438 57.945312 -61.921875 57.945312 -69.617188 L 57.945312 -104.425781 L 61.808594 -104.425781 L 61.808594 -100.5625 L 6.832031 -100.5625 L 6.832031 -104.425781 L 10.695312 -104.425781 L 10.695312 -77.101562 C 10.695312 -50.109375 16.003906 -30.691406 26.625 -18.84375 C 37.132812 -7.121094 54.503906 -1.261719 78.726562 -1.261719 Z M 78.726562 -1.261719 "/></g></g></g><g fill="#16316c" fill-opacity="1"><g transform="translate(498.639162, 335.295329)"><g/></g></g><g fill="#16316c" fill-opacity="1"><g transform="translate(574.76305, 335.295329)"><g><path d="M 8.5 0 L 8.5 -283.3125 L 100.964844 -283.3125 L 124.84375 -109.507812 L 121.019531 -108.980469 L 117.191406 -109.507812 L 141.074219 -283.3125 L 234.1875 -283.3125 L 234.1875 3.863281 L 175.386719 3.863281 L 175.386719 -201.371094 L 179.25 -201.371094 L 183.066406 -200.761719 L 150.339844 3.863281 L 93.683594 3.863281 L 58.976562 -200.726562 L 62.785156 -201.371094 L 66.648438 -201.371094 L 66.648438 3.863281 L 8.5 3.863281 Z M 16.226562 0 L 12.363281 0 L 12.363281 -3.863281 L 62.785156 -3.863281 L 62.785156 0 L 58.921875 0 L 58.921875 -201.371094 L 66.59375 -202.019531 L 100.753906 -0.644531 L 96.945312 0 L 96.945312 -3.863281 L 147.042969 -3.863281 L 147.042969 0 L 143.230469 -0.609375 L 175.433594 -201.980469 L 183.113281 -201.371094 L 183.113281 0 L 179.25 0 L 179.25 -3.863281 L 230.324219 -3.863281 L 230.324219 0 L 226.460938 0 L 226.460938 -279.449219 L 230.324219 -279.449219 L 230.324219 -275.585938 L 144.441406 -275.585938 L 144.441406 -279.449219 L 148.269531 -278.921875 L 124.84375 -108.457031 L 117.191406 -108.457031 L 93.769531 -278.921875 L 97.59375 -279.449219 L 97.59375 -275.585938 L 12.363281 -275.585938 L 12.363281 -279.449219 L 16.226562 -279.449219 Z M 16.226562 0 "/></g></g></g><g fill="#16316c" fill-opacity="1"><g transform="translate(817.448423, 335.295329)"><g><path d="M 8.5 0 L 8.5 -283.3125 L 128.136719 -283.3125 L 128.136719 -221.582031 L 69.292969 -221.582031 L 69.292969 -225.445312 L 73.15625 -225.445312 L 73.15625 -171.117188 L 69.292969 -171.117188 L 69.292969 -174.980469 L 125.859375 -174.980469 L 125.859375 -114.550781 L 69.292969 -114.550781 L 69.292969 -118.414062 L 73.15625 -118.414062 L 73.15625 -54.328125 L 69.292969 -54.328125 L 69.292969 -58.191406 L 131.714844 -58.191406 L 131.714844 3.863281 L 8.5 3.863281 Z M 16.226562 0 L 12.363281 0 L 12.363281 -3.863281 L 127.851562 -3.863281 L 127.851562 0 L 123.988281 0 L 123.988281 -54.328125 L 127.851562 -54.328125 L 127.851562 -50.464844 L 65.429688 -50.464844 L 65.429688 -122.277344 L 121.996094 -122.277344 L 121.996094 -118.414062 L 118.132812 -118.414062 L 118.132812 -171.117188 L 121.996094 -171.117188 L 121.996094 -167.253906 L 65.429688 -167.253906 L 65.429688 -229.308594 L 124.273438 -229.308594 L 124.273438 -225.445312 L 120.410156 -225.445312 L 120.410156 -279.449219 L 124.273438 -279.449219 L 124.273438 -275.585938 L 12.363281 -275.585938 L 12.363281 -279.449219 L 16.226562 -279.449219 Z M 16.226562 0 "/></g></g></g><g fill="#16316c" fill-opacity="1"><g transform="translate(951.47844, 335.295329)"><g><path d="M 12.363281 -283.3125 L 89.460938 -283.3125 C 110.5625 -283.3125 126.480469 -277.355469 137.226562 -265.445312 C 147.855469 -253.660156 153.28125 -236.4375 153.507812 -213.773438 L 154.160156 -82.976562 C 154.382812 -54.613281 149.378906 -33.152344 139.144531 -18.597656 C 128.613281 -3.625 111.402344 3.863281 87.511719 3.863281 L 8.5 3.863281 L 8.5 -283.3125 Z M 12.363281 -275.585938 L 12.363281 -279.449219 L 16.226562 -279.449219 L 16.226562 0 L 12.363281 0 L 12.363281 -3.863281 L 87.511719 -3.863281 C 108.726562 -3.863281 123.832031 -10.257812 132.824219 -23.042969 C 142.105469 -36.246094 146.644531 -56.210938 146.433594 -82.9375 L 145.785156 -213.695312 C 145.574219 -234.40625 140.8125 -249.933594 131.488281 -260.269531 C 122.277344 -270.480469 108.269531 -275.585938 89.460938 -275.585938 Z M 78.402344 -53.3125 C 82.449219 -53.3125 85.371094 -54.191406 87.167969 -55.949219 C 88.941406 -57.6875 89.828125 -60.507812 89.828125 -64.414062 L 89.828125 -208.527344 C 89.828125 -214.429688 89.398438 -218.761719 88.539062 -221.535156 C 87.917969 -223.527344 86.863281 -224.835938 85.375 -225.457031 C 83.246094 -226.34375 79.730469 -226.789062 74.824219 -226.789062 L 68.640625 -226.789062 L 68.640625 -230.652344 L 72.503906 -230.652344 L 72.503906 -49.449219 L 68.640625 -49.449219 L 68.640625 -53.3125 Z M 78.402344 -45.585938 L 64.777344 -45.585938 L 64.777344 -234.515625 L 74.824219 -234.515625 C 80.761719 -234.515625 85.269531 -233.871094 88.347656 -232.589844 C 92.058594 -231.042969 94.585938 -228.121094 95.917969 -223.824219 C 97.007812 -220.308594 97.554688 -215.207031 97.554688 -208.527344 L 97.554688 -64.414062 C 97.554688 -58.339844 95.894531 -53.679688 92.570312 -50.429688 C 89.273438 -47.199219 84.550781 -45.585938 78.402344 -45.585938 Z M 78.402344 -45.585938 "/></g></g></g><g fill="#16316c" fill-opacity="1"><g transform="translate(1111.859044, 335.295329)"><g><path d="M 5.894531 -283.3125 L 67.625 -283.3125 L 67.625 3.863281 L 5.894531 3.863281 Z M 13.621094 -275.585938 L 13.621094 -3.863281 L 59.898438 -3.863281 L 59.898438 -275.585938 Z M 13.621094 -275.585938 "/></g></g></g><g fill="#16316c" fill-opacity="1"><g transform="translate(1185.705624, 335.295329)"><g><path d="M 1.035156 -0.371094 L 28.375 -283.3125 L 130.0625 -283.3125 L 157.472656 3.863281 L 96.652344 3.863281 L 92.445312 -44.886719 L 96.292969 -45.21875 L 96.292969 -41.355469 L 62.460938 -41.355469 L 62.460938 -45.21875 L 66.3125 -44.941406 L 62.804688 3.863281 L 0.625 3.863281 Z M 8.726562 0.371094 L 4.878906 0 L 4.878906 -3.863281 L 59.207031 -3.863281 L 59.207031 0 L 55.355469 -0.277344 L 58.867188 -49.082031 L 99.839844 -49.082031 L 104.046875 -0.332031 L 100.199219 0 L 100.199219 -3.863281 L 153.226562 -3.863281 L 153.226562 0 L 149.378906 0.367188 L 122.703125 -279.082031 L 126.546875 -279.449219 L 126.546875 -275.585938 L 31.882812 -275.585938 L 31.882812 -279.449219 L 35.726562 -279.078125 Z M 66.691406 -93.652344 L 92.066406 -93.652344 L 92.066406 -89.789062 L 88.214844 -89.453125 L 75.855469 -231.617188 L 79.703125 -231.953125 L 79.703125 -228.089844 L 77.101562 -228.089844 L 77.101562 -231.953125 L 80.953125 -231.667969 L 70.542969 -89.503906 L 66.691406 -89.789062 Z M 62.535156 -85.925781 L 73.507812 -235.816406 L 83.246094 -235.816406 L 96.277344 -85.925781 Z M 62.535156 -85.925781 "/></g></g></g><g fill="#829dd8" fill-opacity="1"><g transform="translate(28.55821, 335.295329)"><g><path d="M 12.359375 -279.4375 L 88.15625 -279.4375 C 108.539062 -279.4375 123.34375 -274.445312 132.5625 -264.46875 C 141.78125 -254.5 146.390625 -238.238281 146.390625 -215.6875 L 146.390625 -203.328125 C 146.390625 -176.648438 136.847656 -160.707031 117.765625 -155.5 C 129.472656 -152.457031 137.710938 -145.40625 142.484375 -134.34375 C 147.253906 -123.289062 149.640625 -108.65625 149.640625 -90.4375 C 149.640625 -60.726562 145.191406 -38.226562 136.296875 -22.9375 C 127.410156 -7.644531 111.363281 0 88.15625 0 L 12.359375 0 Z M 78.40625 -174.375 C 83.175781 -174.375 86.425781 -176.160156 88.15625 -179.734375 C 89.894531 -183.316406 90.765625 -188.359375 90.765625 -194.859375 L 90.765625 -222.84375 C 90.765625 -231.945312 86.75 -236.5 78.71875 -236.5 L 67.015625 -236.5 L 67.015625 -174.375 Z M 72.546875 -49.125 C 87.078125 -49.125 94.34375 -56.0625 94.34375 -69.9375 L 94.34375 -104.75 C 94.34375 -113.207031 93.09375 -119.601562 90.59375 -123.9375 C 88.101562 -128.28125 83.710938 -130.453125 77.421875 -130.453125 L 67.015625 -130.453125 L 67.015625 -49.453125 Z M 72.546875 -49.125 "/></g></g></g><g fill="#829dd8" fill-opacity="1"><g transform="translate(184.384356, 335.295329)"><g><path d="M 56.609375 3.25 C 39.910156 3.25 27.222656 -2.710938 18.546875 -14.640625 C 9.867188 -26.566406 5.53125 -42.070312 5.53125 -61.15625 C 5.53125 -82.414062 8.566406 -99.492188 14.640625 -112.390625 C 20.710938 -125.296875 30.253906 -136.628906 43.265625 -146.390625 C 32.640625 -167.210938 27.328125 -185.210938 27.328125 -200.390625 C 27.328125 -216.222656 32.476562 -228.640625 42.78125 -237.640625 C 53.082031 -246.640625 66.363281 -251.140625 82.625 -251.140625 C 98.675781 -251.140625 111.851562 -246.851562 122.15625 -238.28125 C 132.457031 -229.71875 137.609375 -217.738281 137.609375 -202.34375 C 137.609375 -179.789062 125.140625 -158.644531 100.203125 -138.90625 L 110.28125 -115.15625 C 116.351562 -131.207031 125.460938 -143.679688 137.609375 -152.578125 L 159.734375 -118.09375 C 146.929688 -108.113281 136.519531 -91.628906 128.5 -68.640625 L 156.796875 0 L 102.796875 0 L 96.9375 -15.296875 C 92.382812 -9.867188 86.582031 -5.421875 79.53125 -1.953125 C 72.488281 1.515625 64.847656 3.25 56.609375 3.25 Z M 88.484375 -179.25 C 90.648438 -181.632812 92.597656 -185.046875 94.328125 -189.484375 C 96.066406 -193.929688 96.9375 -198.21875 96.9375 -202.34375 C 96.9375 -208.851562 93.796875 -212.109375 87.515625 -212.109375 C 84.910156 -212.109375 82.847656 -211.1875 81.328125 -209.34375 C 79.804688 -207.5 79.046875 -205.164062 79.046875 -202.34375 C 79.046875 -196.707031 81.320312 -188.03125 85.875 -176.3125 Z M 65.390625 -37.40625 C 69.503906 -37.40625 72.972656 -38.976562 75.796875 -42.125 C 78.617188 -45.269531 80.460938 -48.90625 81.328125 -53.03125 L 62.140625 -99.21875 L 60.1875 -96.296875 C 58.445312 -93.691406 57.035156 -89.566406 55.953125 -83.921875 C 54.867188 -78.285156 54.328125 -72.757812 54.328125 -67.34375 L 54.328125 -65.71875 C 54.328125 -57.257812 54.976562 -50.425781 56.28125 -45.21875 C 57.582031 -40.007812 60.617188 -37.40625 65.390625 -37.40625 Z M 65.390625 -37.40625 "/></g></g></g><g fill="#829dd8" fill-opacity="1"><g transform="translate(348.668714, 335.295329)"><g><path d="M 78.71875 2.609375 C 53.351562 2.609375 35.03125 -3.679688 23.75 -16.265625 C 12.46875 -28.847656 6.828125 -49.125 6.828125 -77.09375 L 6.828125 -104.421875 L 61.8125 -104.421875 L 61.8125 -69.609375 C 61.8125 -55.734375 66.253906 -48.796875 75.140625 -48.796875 C 80.128906 -48.796875 83.597656 -50.257812 85.546875 -53.1875 C 87.503906 -56.113281 88.484375 -61.046875 88.484375 -67.984375 C 88.484375 -77.097656 87.398438 -84.632812 85.234375 -90.59375 C 83.066406 -96.5625 80.300781 -101.550781 76.9375 -105.5625 C 73.570312 -109.570312 67.550781 -115.804688 58.875 -124.265625 L 34.8125 -148.34375 C 16.15625 -166.5625 6.828125 -186.726562 6.828125 -208.84375 C 6.828125 -232.707031 12.300781 -250.875 23.25 -263.34375 C 34.207031 -275.8125 50.207031 -282.046875 71.25 -282.046875 C 96.40625 -282.046875 114.507812 -275.375 125.5625 -262.03125 C 136.625 -248.695312 142.15625 -227.828125 142.15625 -199.421875 L 85.234375 -199.421875 L 84.90625 -218.609375 C 84.90625 -222.296875 83.875 -225.222656 81.8125 -227.390625 C 79.75 -229.554688 76.878906 -230.640625 73.203125 -230.640625 C 68.859375 -230.640625 65.601562 -229.445312 63.4375 -227.0625 C 61.269531 -224.675781 60.1875 -221.425781 60.1875 -217.3125 C 60.1875 -208.195312 65.390625 -198.757812 75.796875 -189 L 108.328125 -157.78125 C 115.921875 -150.40625 122.207031 -143.410156 127.1875 -136.796875 C 132.175781 -130.179688 136.1875 -122.375 139.21875 -113.375 C 142.257812 -104.375 143.78125 -93.691406 143.78125 -81.328125 C 143.78125 -53.785156 138.738281 -32.910156 128.65625 -18.703125 C 118.570312 -4.492188 101.925781 2.609375 78.71875 2.609375 Z M 78.71875 2.609375 "/></g></g></g><g fill="#829dd8" fill-opacity="1"><g transform="translate(498.639162, 335.295329)"><g/></g></g><g fill="#829dd8" fill-opacity="1"><g transform="translate(574.76305, 335.295329)"><g><path d="M 12.359375 0 L 12.359375 -279.4375 L 97.59375 -279.4375 L 121.015625 -108.984375 L 144.4375 -279.4375 L 230.328125 -279.4375 L 230.328125 0 L 179.25 0 L 179.25 -201.375 L 147.046875 0 L 96.9375 0 L 62.78125 -201.375 L 62.78125 0 Z M 12.359375 0 "/></g></g></g><g fill="#829dd8" fill-opacity="1"><g transform="translate(817.448423, 335.295329)"><g><path d="M 12.359375 0 L 12.359375 -279.4375 L 124.265625 -279.4375 L 124.265625 -225.4375 L 69.296875 -225.4375 L 69.296875 -171.109375 L 122 -171.109375 L 122 -118.40625 L 69.296875 -118.40625 L 69.296875 -54.328125 L 127.84375 -54.328125 L 127.84375 0 Z M 12.359375 0 "/></g></g></g><g fill="#829dd8" fill-opacity="1"><g transform="translate(951.47844, 335.295329)"><g><path d="M 12.359375 -279.4375 L 89.46875 -279.4375 C 109.414062 -279.4375 124.375 -273.90625 134.34375 -262.84375 C 144.320312 -251.789062 149.421875 -235.421875 149.640625 -213.734375 L 150.296875 -82.953125 C 150.515625 -55.410156 145.742188 -34.695312 135.984375 -20.8125 C 126.222656 -6.9375 110.066406 0 87.515625 0 L 12.359375 0 Z M 78.40625 -49.453125 C 88.59375 -49.453125 93.6875 -54.4375 93.6875 -64.40625 L 93.6875 -208.53125 C 93.6875 -214.8125 93.195312 -219.523438 92.21875 -222.671875 C 91.25 -225.816406 89.460938 -227.929688 86.859375 -229.015625 C 84.253906 -230.097656 80.242188 -230.640625 74.828125 -230.640625 L 68.640625 -230.640625 L 68.640625 -49.453125 Z M 78.40625 -49.453125 "/></g></g></g><g fill="#829dd8" fill-opacity="1"><g transform="translate(1111.859044, 335.295329)"><g><path d="M 9.765625 0 L 9.765625 -279.4375 L 63.765625 -279.4375 L 63.765625 0 Z M 9.765625 0 "/></g></g></g><g fill="#829dd8" fill-opacity="1"><g transform="translate(1185.705624, 335.295329)"><g><path d="M 4.875 0 L 31.875 -279.4375 L 126.546875 -279.4375 L 153.21875 0 L 100.203125 0 L 96.296875 -45.21875 L 62.453125 -45.21875 L 59.203125 0 Z M 66.6875 -89.78125 L 92.0625 -89.78125 L 79.703125 -231.953125 L 77.09375 -231.953125 Z M 66.6875 -89.78125 "/></g></g></g><g fill="#16316c" fill-opacity="1"><g transform="translate(28.55821, 335.295329)"><g><path d="M 12.363281 -283.3125 L 88.160156 -283.3125 C 109.675781 -283.3125 125.421875 -277.910156 135.40625 -267.105469 C 145.304688 -256.390625 150.257812 -239.25 150.257812 -215.6875 L 150.257812 -203.324219 C 150.257812 -174.679688 139.765625 -157.496094 118.78125 -151.773438 L 117.765625 -155.503906 L 118.734375 -159.242188 C 131.664062 -155.890625 140.765625 -148.105469 146.035156 -135.886719 C 151.019531 -124.335938 153.507812 -109.1875 153.507812 -90.4375 C 153.507812 -60.03125 148.890625 -36.882812 139.648438 -20.992188 C 130.011719 -4.421875 112.847656 3.863281 88.160156 3.863281 L 8.5 3.863281 L 8.5 -283.3125 Z M 12.363281 -275.585938 L 12.363281 -279.449219 L 16.226562 -279.449219 L 16.226562 0 L 12.363281 0 L 12.363281 -3.863281 L 88.160156 -3.863281 C 109.886719 -3.863281 124.820312 -10.867188 132.96875 -24.878906 C 141.511719 -39.566406 145.78125 -61.421875 145.78125 -90.4375 C 145.78125 -108.125 143.503906 -122.253906 138.941406 -132.824219 C 134.667969 -142.730469 127.289062 -149.042969 116.796875 -151.761719 L 102.734375 -155.40625 L 116.75 -159.230469 C 133.9375 -163.917969 142.53125 -178.613281 142.53125 -203.324219 L 142.53125 -215.6875 C 142.53125 -237.234375 138.261719 -252.625 129.730469 -261.863281 C 121.277344 -271.011719 107.421875 -275.585938 88.160156 -275.585938 Z M 78.402344 -178.234375 C 81.558594 -178.234375 83.652344 -179.296875 84.683594 -181.421875 C 86.160156 -184.46875 86.902344 -188.949219 86.902344 -194.867188 L 86.902344 -222.84375 C 86.902344 -226.425781 86.21875 -228.988281 84.855469 -230.535156 C 83.617188 -231.941406 81.574219 -232.644531 78.726562 -232.644531 L 67.015625 -232.644531 L 67.015625 -236.507812 L 70.878906 -236.507812 L 70.878906 -174.371094 L 67.015625 -174.371094 L 67.015625 -178.234375 Z M 78.402344 -170.507812 L 63.152344 -170.507812 L 63.152344 -240.371094 L 78.726562 -240.371094 C 83.902344 -240.371094 87.878906 -238.792969 90.652344 -235.644531 C 93.300781 -232.636719 94.628906 -228.371094 94.628906 -222.84375 L 94.628906 -194.867188 C 94.628906 -187.769531 93.628906 -182.164062 91.636719 -178.054688 C 89.199219 -173.023438 84.785156 -170.507812 78.402344 -170.507812 Z M 72.546875 -52.984375 C 78.777344 -52.984375 83.339844 -54.363281 86.226562 -57.121094 C 89.0625 -59.832031 90.480469 -64.105469 90.480469 -69.945312 L 90.480469 -104.753906 C 90.480469 -112.523438 89.402344 -118.277344 87.253906 -122.019531 C 85.5 -125.066406 82.226562 -126.589844 77.425781 -126.589844 L 67.015625 -126.589844 L 67.015625 -130.453125 L 70.878906 -130.453125 L 70.878906 -49.449219 L 67.015625 -49.449219 L 67.242188 -53.304688 L 72.773438 -52.980469 L 72.546875 -49.121094 Z M 72.433594 -45.261719 L 63.152344 -45.804688 L 63.152344 -134.316406 L 77.425781 -134.316406 C 85.207031 -134.316406 90.714844 -131.5 93.949219 -125.871094 C 96.785156 -120.9375 98.207031 -113.898438 98.207031 -104.753906 L 98.207031 -69.945312 C 98.207031 -61.902344 95.992188 -55.765625 91.5625 -51.535156 C 87.183594 -47.351562 80.84375 -45.261719 72.546875 -45.261719 Z M 72.433594 -45.261719 "/></g></g></g><g fill="#16316c" fill-opacity="1"><g transform="translate(184.384356, 335.295329)"><g><path d="M 56.605469 7.117188 C 38.59375 7.117188 24.867188 0.621094 15.417969 -12.367188 C 6.25 -24.972656 1.667969 -41.238281 1.667969 -61.160156 C 1.667969 -82.988281 4.824219 -100.617188 11.144531 -114.042969 C 17.488281 -127.527344 27.425781 -139.339844 40.949219 -149.484375 L 43.265625 -146.394531 L 39.828125 -144.636719 C 28.917969 -166.007812 23.464844 -184.59375 23.464844 -200.394531 C 23.464844 -217.398438 29.054688 -230.785156 40.238281 -240.554688 C 51.265625 -250.191406 65.398438 -255.007812 82.628906 -255.007812 C 99.609375 -255.007812 113.609375 -250.429688 124.628906 -241.265625 C 135.859375 -231.925781 141.472656 -218.953125 141.472656 -202.347656 C 141.472656 -178.546875 128.511719 -156.390625 102.59375 -135.882812 L 100.199219 -138.910156 L 103.753906 -140.421875 L 113.839844 -116.671875 L 110.28125 -115.164062 L 106.667969 -116.53125 C 113.011719 -133.292969 122.566406 -146.347656 135.328125 -155.691406 L 138.644531 -158.117188 L 164.886719 -117.210938 L 162.105469 -115.042969 C 149.910156 -105.535156 139.921875 -89.640625 132.148438 -67.367188 L 128.5 -68.640625 L 132.070312 -70.113281 L 162.574219 3.863281 L 100.144531 3.863281 L 93.335938 -13.910156 L 96.945312 -15.289062 L 99.902344 -12.804688 C 95 -6.96875 88.78125 -2.195312 81.246094 1.515625 C 73.660156 5.25 65.445312 7.117188 56.605469 7.117188 Z M 56.605469 -0.609375 C 64.246094 -0.609375 71.324219 -2.210938 77.832031 -5.417969 C 84.394531 -8.648438 89.78125 -12.769531 93.988281 -17.773438 L 98.207031 -22.796875 L 106.410156 -1.382812 L 102.800781 0 L 102.800781 -3.863281 L 156.804688 -3.863281 L 156.804688 0 L 153.230469 1.472656 L 124.367188 -68.527344 L 124.851562 -69.914062 C 133.128906 -93.621094 143.960938 -110.695312 157.355469 -121.136719 L 159.730469 -118.089844 L 156.480469 -116.003906 L 134.359375 -150.488281 L 137.609375 -152.574219 L 139.890625 -149.457031 C 128.363281 -141.015625 119.699219 -129.128906 113.894531 -113.796875 L 110.488281 -104.792969 L 95.492188 -140.113281 L 97.800781 -141.941406 C 121.765625 -160.902344 133.746094 -181.039062 133.746094 -202.347656 C 133.746094 -216.539062 129.058594 -227.53125 119.6875 -235.324219 C 110.101562 -243.296875 97.75 -247.28125 82.628906 -247.28125 C 67.332031 -247.28125 54.894531 -243.101562 45.320312 -234.734375 C 35.898438 -226.503906 31.191406 -215.058594 31.191406 -200.394531 C 31.191406 -185.832031 36.363281 -168.417969 46.707031 -148.148438 L 48.1875 -145.253906 L 45.585938 -143.300781 C 33.085938 -133.925781 23.933594 -123.078125 18.136719 -110.753906 C 12.308594 -98.367188 9.394531 -81.839844 9.394531 -61.160156 C 9.394531 -42.910156 13.484375 -28.164062 21.667969 -16.910156 C 29.570312 -6.042969 41.21875 -0.609375 56.605469 -0.609375 Z M 85.628906 -181.847656 C 87.476562 -183.882812 89.179688 -186.898438 90.742188 -190.902344 C 92.300781 -194.898438 93.082031 -198.710938 93.082031 -202.347656 C 93.082031 -204.558594 92.65625 -206.105469 91.808594 -206.984375 C 90.996094 -207.824219 89.5625 -208.242188 87.511719 -208.242188 C 86.125 -208.242188 85.058594 -207.792969 84.3125 -206.886719 C 83.382812 -205.757812 82.914062 -204.242188 82.914062 -202.347656 C 82.914062 -197.191406 85.105469 -188.984375 89.484375 -177.722656 L 85.882812 -176.324219 L 82.996094 -178.890625 L 85.597656 -181.816406 Z M 91.375 -176.683594 L 84.574219 -169.03125 L 82.285156 -174.921875 C 77.554688 -187.082031 75.1875 -196.226562 75.1875 -202.347656 C 75.1875 -206.089844 76.242188 -209.242188 78.347656 -211.796875 C 80.636719 -214.578125 83.691406 -215.96875 87.511719 -215.96875 C 91.746094 -215.96875 95.03125 -214.765625 97.363281 -212.351562 C 99.660156 -209.976562 100.808594 -206.640625 100.808594 -202.347656 C 100.808594 -197.742188 99.851562 -192.992188 97.941406 -188.09375 C 96.03125 -183.203125 93.835938 -179.390625 91.34375 -176.652344 Z M 65.390625 -41.273438 C 68.359375 -41.273438 70.871094 -42.417969 72.921875 -44.707031 C 75.28125 -47.339844 76.824219 -50.378906 77.550781 -53.824219 L 81.328125 -53.027344 L 77.761719 -51.542969 L 58.566406 -97.738281 L 62.136719 -99.222656 L 65.351562 -97.078125 L 63.398438 -94.152344 C 61.953125 -91.980469 60.734375 -88.332031 59.75 -83.203125 C 58.710938 -77.804688 58.191406 -72.515625 58.191406 -67.339844 L 58.191406 -65.714844 C 58.191406 -57.574219 58.804688 -51.054688 60.027344 -46.15625 C 60.480469 -44.351562 61.152344 -43.0625 62.046875 -42.296875 C 62.84375 -41.617188 63.957031 -41.273438 65.390625 -41.273438 Z M 65.390625 -33.546875 C 62.050781 -33.546875 59.261719 -34.507812 57.019531 -36.429688 C 54.878906 -38.265625 53.382812 -40.882812 52.53125 -44.28125 C 51.152344 -49.792969 50.464844 -56.9375 50.464844 -65.714844 L 50.464844 -67.339844 C 50.464844 -73.007812 51.03125 -78.78125 52.160156 -84.660156 C 53.34375 -90.8125 54.945312 -95.402344 56.96875 -98.4375 L 62.929688 -107.378906 L 85.355469 -53.402344 L 85.109375 -52.230469 C 84.101562 -47.433594 81.957031 -43.207031 78.675781 -39.550781 C 75.089844 -35.546875 70.660156 -33.546875 65.390625 -33.546875 Z M 65.390625 -33.546875 "/></g></g></g><g fill="#16316c" fill-opacity="1"><g transform="translate(348.668714, 335.295329)"><g><path d="M 78.726562 6.464844 C 52.203125 6.464844 32.917969 -0.25 20.871094 -13.6875 C 8.9375 -27 2.96875 -48.136719 2.96875 -77.101562 L 2.96875 -108.289062 L 65.671875 -108.289062 L 65.671875 -69.617188 C 65.671875 -63.433594 66.582031 -58.921875 68.398438 -56.085938 C 69.859375 -53.804688 72.109375 -52.660156 75.148438 -52.660156 C 78.757812 -52.660156 81.15625 -53.550781 82.34375 -55.332031 C 83.863281 -57.613281 84.625 -61.832031 84.625 -67.992188 C 84.625 -76.648438 83.617188 -83.742188 81.601562 -89.28125 C 79.589844 -94.820312 77.046875 -99.421875 73.976562 -103.085938 C 70.699219 -106.996094 64.769531 -113.136719 56.1875 -121.503906 L 32.078125 -145.613281 C 12.671875 -164.566406 2.96875 -185.648438 2.96875 -208.855469 C 2.96875 -233.679688 8.765625 -252.695312 20.359375 -265.894531 C 32.078125 -279.242188 49.042969 -285.914062 71.246094 -285.914062 C 97.613281 -285.914062 116.714844 -278.777344 128.546875 -264.507812 C 140.199219 -250.457031 146.027344 -228.761719 146.027344 -199.421875 L 146.027344 -195.558594 L 81.433594 -195.558594 L 81.046875 -218.546875 C 81.046875 -221.25 80.367188 -223.3125 79.015625 -224.738281 C 77.71875 -226.105469 75.777344 -226.789062 73.195312 -226.789062 C 70 -226.789062 67.699219 -226.015625 66.296875 -224.472656 C 64.796875 -222.824219 64.046875 -220.4375 64.046875 -217.3125 C 64.046875 -209.320312 68.84375 -200.824219 78.441406 -191.828125 L 111.007812 -160.566406 C 118.75 -153.042969 125.175781 -145.894531 130.285156 -139.121094 C 135.523438 -132.175781 139.726562 -124.003906 142.898438 -114.609375 C 146.066406 -105.207031 147.652344 -94.113281 147.652344 -81.328125 C 147.652344 -52.964844 142.375 -31.34375 131.8125 -16.46875 C 120.957031 -1.179688 103.261719 6.464844 78.726562 6.464844 Z M 78.726562 -1.261719 C 100.601562 -1.261719 116.199219 -7.820312 125.511719 -20.941406 C 135.121094 -34.476562 139.925781 -54.605469 139.925781 -81.328125 C 139.925781 -93.269531 138.476562 -103.539062 135.574219 -112.136719 C 132.671875 -120.746094 128.851562 -128.1875 124.113281 -134.46875 C 119.246094 -140.925781 113.09375 -147.765625 105.65625 -154.992188 L 73.15625 -186.191406 C 61.933594 -196.714844 56.320312 -207.085938 56.320312 -217.3125 C 56.320312 -222.429688 57.738281 -226.546875 60.578125 -229.671875 C 63.511719 -232.898438 67.71875 -234.515625 73.195312 -234.515625 C 77.988281 -234.515625 81.796875 -233.027344 84.617188 -230.058594 C 87.386719 -227.144531 88.769531 -223.351562 88.769531 -218.679688 L 89.097656 -199.484375 L 85.234375 -199.421875 L 85.234375 -203.285156 L 142.164062 -203.285156 L 142.164062 -199.421875 L 138.300781 -199.421875 C 138.300781 -226.902344 133.066406 -246.953125 122.597656 -259.578125 C 112.3125 -271.984375 95.191406 -278.1875 71.246094 -278.1875 C 51.375 -278.1875 36.347656 -272.390625 26.164062 -260.796875 C 15.851562 -249.054688 10.695312 -231.742188 10.695312 -208.855469 C 10.695312 -187.816406 19.644531 -168.558594 37.539062 -151.078125 L 61.578125 -127.039062 C 70.347656 -118.488281 76.453125 -112.160156 79.898438 -108.046875 C 83.550781 -103.6875 86.539062 -98.3125 88.863281 -91.921875 C 91.1875 -85.53125 92.351562 -77.554688 92.351562 -67.992188 C 92.351562 -60.273438 91.15625 -54.625 88.773438 -51.046875 C 86.054688 -46.972656 81.515625 -44.933594 75.148438 -44.933594 C 69.292969 -44.933594 64.875 -47.261719 61.890625 -51.917969 C 59.261719 -56.023438 57.945312 -61.921875 57.945312 -69.617188 L 57.945312 -104.425781 L 61.808594 -104.425781 L 61.808594 -100.5625 L 6.832031 -100.5625 L 6.832031 -104.425781 L 10.695312 -104.425781 L 10.695312 -77.101562 C 10.695312 -50.109375 16.003906 -30.691406 26.625 -18.84375 C 37.132812 -7.121094 54.503906 -1.261719 78.726562 -1.261719 Z M 78.726562 -1.261719 "/></g></g></g><g fill="#16316c" fill-opacity="1"><g transform="translate(498.639162, 335.295329)"><g/></g></g><g fill="#16316c" fill-opacity="1"><g transform="translate(574.76305, 335.295329)"><g><path d="M 8.5 0 L 8.5 -283.3125 L 100.964844 -283.3125 L 124.84375 -109.507812 L 121.019531 -108.980469 L 117.191406 -109.507812 L 141.074219 -283.3125 L 234.1875 -283.3125 L 234.1875 3.863281 L 175.386719 3.863281 L 175.386719 -201.371094 L 179.25 -201.371094 L 183.066406 -200.761719 L 150.339844 3.863281 L 93.683594 3.863281 L 58.976562 -200.726562 L 62.785156 -201.371094 L 66.648438 -201.371094 L 66.648438 3.863281 L 8.5 3.863281 Z M 16.226562 0 L 12.363281 0 L 12.363281 -3.863281 L 62.785156 -3.863281 L 62.785156 0 L 58.921875 0 L 58.921875 -201.371094 L 66.59375 -202.019531 L 100.753906 -0.644531 L 96.945312 0 L 96.945312 -3.863281 L 147.042969 -3.863281 L 147.042969 0 L 143.230469 -0.609375 L 175.433594 -201.980469 L 183.113281 -201.371094 L 183.113281 0 L 179.25 0 L 179.25 -3.863281 L 230.324219 -3.863281 L 230.324219 0 L 226.460938 0 L 226.460938 -279.449219 L 230.324219 -279.449219 L 230.324219 -275.585938 L 144.441406 -275.585938 L 144.441406 -279.449219 L 148.269531 -278.921875 L 124.84375 -108.457031 L 117.191406 -108.457031 L 93.769531 -278.921875 L 97.59375 -279.449219 L 97.59375 -275.585938 L 12.363281 -275.585938 L 12.363281 -279.449219 L 16.226562 -279.449219 Z M 16.226562 0 "/></g></g></g><g fill="#16316c" fill-opacity="1"><g transform="translate(817.448423, 335.295329)"><g><path d="M 8.5 0 L 8.5 -283.3125 L 128.136719 -283.3125 L 128.136719 -221.582031 L 69.292969 -221.582031 L 69.292969 -225.445312 L 73.15625 -225.445312 L 73.15625 -171.117188 L 69.292969 -171.117188 L 69.292969 -174.980469 L 125.859375 -174.980469 L 125.859375 -114.550781 L 69.292969 -114.550781 L 69.292969 -118.414062 L 73.15625 -118.414062 L 73.15625 -54.328125 L 69.292969 -54.328125 L 69.292969 -58.191406 L 131.714844 -58.191406 L 131.714844 3.863281 L 8.5 3.863281 Z M 16.226562 0 L 12.363281 0 L 12.363281 -3.863281 L 127.851562 -3.863281 L 127.851562 0 L 123.988281 0 L 123.988281 -54.328125 L 127.851562 -54.328125 L 127.851562 -50.464844 L 65.429688 -50.464844 L 65.429688 -122.277344 L 121.996094 -122.277344 L 121.996094 -118.414062 L 118.132812 -118.414062 L 118.132812 -171.117188 L 121.996094 -171.117188 L 121.996094 -167.253906 L 65.429688 -167.253906 L 65.429688 -229.308594 L 124.273438 -229.308594 L 124.273438 -225.445312 L 120.410156 -225.445312 L 120.410156 -279.449219 L 124.273438 -279.449219 L 124.273438 -275.585938 L 12.363281 -275.585938 L 12.363281 -279.449219 L 16.226562 -279.449219 Z M 16.226562 0 "/></g></g></g><g fill="#16316c" fill-opacity="1"><g transform="translate(951.47844, 335.295329)"><g><path d="M 12.363281 -283.3125 L 89.460938 -283.3125 C 110.5625 -283.3125 126.480469 -277.355469 137.226562 -265.445312 C 147.855469 -253.660156 153.28125 -236.4375 153.507812 -213.773438 L 154.160156 -82.976562 C 154.382812 -54.613281 149.378906 -33.152344 139.144531 -18.597656 C 128.613281 -3.625 111.402344 3.863281 87.511719 3.863281 L 8.5 3.863281 L 8.5 -283.3125 Z M 12.363281 -275.585938 L 12.363281 -279.449219 L 16.226562 -279.449219 L 16.226562 0 L 12.363281 0 L 12.363281 -3.863281 L 87.511719 -3.863281 C 108.726562 -3.863281 123.832031 -10.257812 132.824219 -23.042969 C 142.105469 -36.246094 146.644531 -56.210938 146.433594 -82.9375 L 145.785156 -213.695312 C 145.574219 -234.40625 140.8125 -249.933594 131.488281 -260.269531 C 122.277344 -270.480469 108.269531 -275.585938 89.460938 -275.585938 Z M 78.402344 -53.3125 C 82.449219 -53.3125 85.371094 -54.191406 87.167969 -55.949219 C 88.941406 -57.6875 89.828125 -60.507812 89.828125 -64.414062 L 89.828125 -208.527344 C 89.828125 -214.429688 89.398438 -218.761719 88.539062 -221.535156 C 87.917969 -223.527344 86.863281 -224.835938 85.375 -225.457031 C 83.246094 -226.34375 79.730469 -226.789062 74.824219 -226.789062 L 68.640625 -226.789062 L 68.640625 -230.652344 L 72.503906 -230.652344 L 72.503906 -49.449219 L 68.640625 -49.449219 L 68.640625 -53.3125 Z M 78.402344 -45.585938 L 64.777344 -45.585938 L 64.777344 -234.515625 L 74.824219 -234.515625 C 80.761719 -234.515625 85.269531 -233.871094 88.347656 -232.589844 C 92.058594 -231.042969 94.585938 -228.121094 95.917969 -223.824219 C 97.007812 -220.308594 97.554688 -215.207031 97.554688 -208.527344 L 97.554688 -64.414062 C 97.554688 -58.339844 95.894531 -53.679688 92.570312 -50.429688 C 89.273438 -47.199219 84.550781 -45.585938 78.402344 -45.585938 Z M 78.402344 -45.585938 "/></g></g></g><g fill="#16316c" fill-opacity="1"><g transform="translate(1111.859044, 335.295329)"><g><path d="M 5.894531 -283.3125 L 67.625 -283.3125 L 67.625 3.863281 L 5.894531 3.863281 Z M 13.621094 -275.585938 L 13.621094 -3.863281 L 59.898438 -3.863281 L 59.898438 -275.585938 Z M 13.621094 -275.585938 "/></g></g></g><g fill="#16316c" fill-opacity="1"><g transform="translate(1185.705624, 335.295329)"><g><path d="M 1.035156 -0.371094 L 28.375 -283.3125 L 130.0625 -283.3125 L 157.472656 3.863281 L 96.652344 3.863281 L 92.445312 -44.886719 L 96.292969 -45.21875 L 96.292969 -41.355469 L 62.460938 -41.355469 L 62.460938 -45.21875 L 66.3125 -44.941406 L 62.804688 3.863281 L 0.625 3.863281 Z M 8.726562 0.371094 L 4.878906 0 L 4.878906 -3.863281 L 59.207031 -3.863281 L 59.207031 0 L 55.355469 -0.277344 L 58.867188 -49.082031 L 99.839844 -49.082031 L 104.046875 -0.332031 L 100.199219 0 L 100.199219 -3.863281 L 153.226562 -3.863281 L 153.226562 0 L 149.378906 0.367188 L 122.703125 -279.082031 L 126.546875 -279.449219 L 126.546875 -275.585938 L 31.882812 -275.585938 L 31.882812 -279.449219 L 35.726562 -279.078125 Z M 66.691406 -93.652344 L 92.066406 -93.652344 L 92.066406 -89.789062 L 88.214844 -89.453125 L 75.855469 -231.617188 L 79.703125 -231.953125 L 79.703125 -228.089844 L 77.101562 -228.089844 L 77.101562 -231.953125 L 80.953125 -231.667969 L 70.542969 -89.503906 L 66.691406 -89.789062 Z M 62.535156 -85.925781 L 73.507812 -235.816406 L 83.246094 -235.816406 L 96.277344 -85.925781 Z M 62.535156 -85.925781 "/></g></g></g><g fill="#829dd8" fill-opacity="1"><g transform="translate(28.55821, 335.295329)"><g><path d="M 12.359375 -279.4375 L 88.15625 -279.4375 C 108.539062 -279.4375 123.34375 -274.445312 132.5625 -264.46875 C 141.78125 -254.5 146.390625 -238.238281 146.390625 -215.6875 L 146.390625 -203.328125 C 146.390625 -176.648438 136.847656 -160.707031 117.765625 -155.5 C 129.472656 -152.457031 137.710938 -145.40625 142.484375 -134.34375 C 147.253906 -123.289062 149.640625 -108.65625 149.640625 -90.4375 C 149.640625 -60.726562 145.191406 -38.226562 136.296875 -22.9375 C 127.410156 -7.644531 111.363281 0 88.15625 0 L 12.359375 0 Z M 78.40625 -174.375 C 83.175781 -174.375 86.425781 -176.160156 88.15625 -179.734375 C 89.894531 -183.316406 90.765625 -188.359375 90.765625 -194.859375 L 90.765625 -222.84375 C 90.765625 -231.945312 86.75 -236.5 78.71875 -236.5 L 67.015625 -236.5 L 67.015625 -174.375 Z M 72.546875 -49.125 C 87.078125 -49.125 94.34375 -56.0625 94.34375 -69.9375 L 94.34375 -104.75 C 94.34375 -113.207031 93.09375 -119.601562 90.59375 -123.9375 C 88.101562 -128.28125 83.710938 -130.453125 77.421875 -130.453125 L 67.015625 -130.453125 L 67.015625 -49.453125 Z M 72.546875 -49.125 "/></g></g></g><g fill="#829dd8" fill-opacity="1"><g transform="translate(184.384356, 335.295329)"><g><path d="M 56.609375 3.25 C 39.910156 3.25 27.222656 -2.710938 18.546875 -14.640625 C 9.867188 -26.566406 5.53125 -42.070312 5.53125 -61.15625 C 5.53125 -82.414062 8.566406 -99.492188 14.640625 -112.390625 C 20.710938 -125.296875 30.253906 -136.628906 43.265625 -146.390625 C 32.640625 -167.210938 27.328125 -185.210938 27.328125 -200.390625 C 27.328125 -216.222656 32.476562 -228.640625 42.78125 -237.640625 C 53.082031 -246.640625 66.363281 -251.140625 82.625 -251.140625 C 98.675781 -251.140625 111.851562 -246.851562 122.15625 -238.28125 C 132.457031 -229.71875 137.609375 -217.738281 137.609375 -202.34375 C 137.609375 -179.789062 125.140625 -158.644531 100.203125 -138.90625 L 110.28125 -115.15625 C 116.351562 -131.207031 125.460938 -143.679688 137.609375 -152.578125 L 159.734375 -118.09375 C 146.929688 -108.113281 136.519531 -91.628906 128.5 -68.640625 L 156.796875 0 L 102.796875 0 L 96.9375 -15.296875 C 92.382812 -9.867188 86.582031 -5.421875 79.53125 -1.953125 C 72.488281 1.515625 64.847656 3.25 56.609375 3.25 Z M 88.484375 -179.25 C 90.648438 -181.632812 92.597656 -185.046875 94.328125 -189.484375 C 96.066406 -193.929688 96.9375 -198.21875 96.9375 -202.34375 C 96.9375 -208.851562 93.796875 -212.109375 87.515625 -212.109375 C 84.910156 -212.109375 82.847656 -211.1875 81.328125 -209.34375 C 79.804688 -207.5 79.046875 -205.164062 79.046875 -202.34375 C 79.046875 -196.707031 81.320312 -188.03125 85.875 -176.3125 Z M 65.390625 -37.40625 C 69.503906 -37.40625 72.972656 -38.976562 75.796875 -42.125 C 78.617188 -45.269531 80.460938 -48.90625 81.328125 -53.03125 L 62.140625 -99.21875 L 60.1875 -96.296875 C 58.445312 -93.691406 57.035156 -89.566406 55.953125 -83.921875 C 54.867188 -78.285156 54.328125 -72.757812 54.328125 -67.34375 L 54.328125 -65.71875 C 54.328125 -57.257812 54.976562 -50.425781 56.28125 -45.21875 C 57.582031 -40.007812 60.617188 -37.40625 65.390625 -37.40625 Z M 65.390625 -37.40625 "/></g></g></g><g fill="#829dd8" fill-opacity="1"><g transform="translate(348.668714, 335.295329)"><g><path d="M 78.71875 2.609375 C 53.351562 2.609375 35.03125 -3.679688 23.75 -16.265625 C 12.46875 -28.847656 6.828125 -49.125 6.828125 -77.09375 L 6.828125 -104.421875 L 61.8125 -104.421875 L 61.8125 -69.609375 C 61.8125 -55.734375 66.253906 -48.796875 75.140625 -48.796875 C 80.128906 -48.796875 83.597656 -50.257812 85.546875 -53.1875 C 87.503906 -56.113281 88.484375 -61.046875 88.484375 -67.984375 C 88.484375 -77.097656 87.398438 -84.632812 85.234375 -90.59375 C 83.066406 -96.5625 80.300781 -101.550781 76.9375 -105.5625 C 73.570312 -109.570312 67.550781 -115.804688 58.875 -124.265625 L 34.8125 -148.34375 C 16.15625 -166.5625 6.828125 -186.726562 6.828125 -208.84375 C 6.828125 -232.707031 12.300781 -250.875 23.25 -263.34375 C 34.207031 -275.8125 50.207031 -282.046875 71.25 -282.046875 C 96.40625 -282.046875 114.507812 -275.375 125.5625 -262.03125 C 136.625 -248.695312 142.15625 -227.828125 142.15625 -199.421875 L 85.234375 -199.421875 L 84.90625 -218.609375 C 84.90625 -222.296875 83.875 -225.222656 81.8125 -227.390625 C 79.75 -229.554688 76.878906 -230.640625 73.203125 -230.640625 C 68.859375 -230.640625 65.601562 -229.445312 63.4375 -227.0625 C 61.269531 -224.675781 60.1875 -221.425781 60.1875 -217.3125 C 60.1875 -208.195312 65.390625 -198.757812 75.796875 -189 L 108.328125 -157.78125 C 115.921875 -150.40625 122.207031 -143.410156 127.1875 -136.796875 C 132.175781 -130.179688 136.1875 -122.375 139.21875 -113.375 C 142.257812 -104.375 143.78125 -93.691406 143.78125 -81.328125 C 143.78125 -53.785156 138.738281 -32.910156 128.65625 -18.703125 C 118.570312 -4.492188 101.925781 2.609375 78.71875 2.609375 Z M 78.71875 2.609375 "/></g></g></g><g fill="#829dd8" fill-opacity="1"><g transform="translate(498.639162, 335.295329)"><g/></g></g><g fill="#829dd8" fill-opacity="1"><g transform="translate(574.76305, 335.295329)"><g><path d="M 12.359375 0 L 12.359375 -279.4375 L 97.59375 -279.4375 L 121.015625 -108.984375 L 144.4375 -279.4375 L 230.328125 -279.4375 L 230.328125 0 L 179.25 0 L 179.25 -201.375 L 147.046875 0 L 96.9375 0 L 62.78125 -201.375 L 62.78125 0 Z M 12.359375 0 "/></g></g></g><g fill="#829dd8" fill-opacity="1"><g transform="translate(817.448423, 335.295329)"><g><path d="M 12.359375 0 L 12.359375 -279.4375 L 124.265625 -279.4375 L 124.265625 -225.4375 L 69.296875 -225.4375 L 69.296875 -171.109375 L 122 -171.109375 L 122 -118.40625 L 69.296875 -118.40625 L 69.296875 -54.328125 L 127.84375 -54.328125 L 127.84375 0 Z M 12.359375 0 "/></g></g></g><g fill="#829dd8" fill-opacity="1"><g transform="translate(951.47844, 335.295329)"><g><path d="M 12.359375 -279.4375 L 89.46875 -279.4375 C 109.414062 -279.4375 124.375 -273.90625 134.34375 -262.84375 C 144.320312 -251.789062 149.421875 -235.421875 149.640625 -213.734375 L 150.296875 -82.953125 C 150.515625 -55.410156 145.742188 -34.695312 135.984375 -20.8125 C 126.222656 -6.9375 110.066406 0 87.515625 0 L 12.359375 0 Z M 78.40625 -49.453125 C 88.59375 -49.453125 93.6875 -54.4375 93.6875 -64.40625 L 93.6875 -208.53125 C 93.6875 -214.8125 93.195312 -219.523438 92.21875 -222.671875 C 91.25 -225.816406 89.460938 -227.929688 86.859375 -229.015625 C 84.253906 -230.097656 80.242188 -230.640625 74.828125 -230.640625 L 68.640625 -230.640625 L 68.640625 -49.453125 Z M 78.40625 -49.453125 "/></g></g></g><g fill="#829dd8" fill-opacity="1"><g transform="translate(1111.859044, 335.295329)"><g><path d="M 9.765625 0 L 9.765625 -279.4375 L 63.765625 -279.4375 L 63.765625 0 Z M 9.765625 0 "/></g></g></g><g fill="#829dd8" fill-opacity="1"><g transform="translate(1185.705624, 335.295329)"><g><path d="M 4.875 0 L 31.875 -279.4375 L 126.546875 -279.4375 L 153.21875 0 L 100.203125 0 L 96.296875 -45.21875 L 62.453125 -45.21875 L 59.203125 0 Z M 66.6875 -89.78125 L 92.0625 -89.78125 L 79.703125 -231.953125 L 77.09375 -231.953125 Z M 66.6875 -89.78125 "/></g></g></g></g></g></g></svg>